<?xml version="1.0" encoding="utf-8"?>
<!-- Generator: Adobe Illustrator 26.0.1, SVG Export Plug-In . SVG Version: 6.00 Build 0)  -->
<svg version="1.1" id="Layer_1" xmlns="http://www.w3.org/2000/svg" xmlns:xlink="http://www.w3.org/1999/xlink" x="0px" y="0px"
	 viewBox="0 0 614.33 614.34" style="enable-background:new 0 0 614.33 614.34;" xml:space="preserve">
<style type="text/css">
	.st0{fill:#FFFFFF;}
	.st1{fill:#001D66;}
</style>
<path class="st1" d="M580.69,200.44c-22.79-27.28-54.26-45.58-88.83-51.62L551.86,2.64L552.94,0h-214.7
	c-90.69,0-164.48,73.63-164.48,164.32v7.6h-21.39c-73.01,0-135.8,49.76-149.59,118.28c-8.52,44.49,2.79,89.45,31,123.55
	c22.48,27.59,53.95,45.89,88.83,51.62L62.61,611.71l-1.24,2.64h214.86c90.69,0,164.48-73.63,164.48-164.32v-7.75h21.24
	c73.01,0,135.95-49.61,149.59-118.13c1.86-9.77,2.79-19.53,2.79-29.3C614.33,260.43,602.71,227.1,580.69,200.44z M570.46,316.09
	c-9.77,48.83-55.34,84.33-108.51,84.33h-21.24v-80.3c0-81.7-66.5-148.2-148.04-148.2h-35.03v42.01h35.03
	c58.44,0,106.03,47.59,106.03,106.19v129.91c0,67.43-54.88,122.47-122.47,122.47H123.85l59.22-144.01l1.09-2.79h-36.59
	c-31.47,0-61.23-13.95-81.54-38.44c-20.15-24.65-28.21-57.05-22.17-88.83c9.77-48.99,55.34-84.49,108.51-84.49h21.39v80.3
	c0,81.69,66.35,148.04,148.04,148.04h35.03v-41.86h-35.03c-58.44,0-106.03-47.59-106.03-106.19V164.32
	c0-67.43,54.88-122.31,122.47-122.31h152.23l-59.06,144.01l-1.09,2.64h36.43c31.78,0,61.54,13.95,81.54,38.45
	C568.6,251.75,576.66,284.15,570.46,316.09z"/>
</svg>
