<?xml version="1.0" encoding="utf-8"?>
<!-- Generator: Adobe Illustrator 26.0.1, SVG Export Plug-In . SVG Version: 6.00 Build 0)  -->
<svg version="1.1" id="Layer_1" xmlns="http://www.w3.org/2000/svg" xmlns:xlink="http://www.w3.org/1999/xlink" x="0px" y="0px"
	 viewBox="0 0 1153.06 437.93" style="enable-background:new 0 0 1153.06 437.93;" xml:space="preserve">
<style type="text/css">
	.st0{fill:#FFFFFF;}
	.st1{fill:#001D66;}
</style>
<g>
	<path class="st1" d="M655.15,109.35v51.61c0,32.04-26.09,58.04-58.14,58.04h-73.78l10.75-26.09h63.03
		c17.46,0,31.56-14.01,31.95-31.28v-52.29c0-14.01-11.32-25.33-25.33-25.33h-48.06c-7.48,0-14.49,3.26-19.38,8.92
		c-4.8,5.76-6.91,13.24-5.66,20.72c2.02,11.99,13.34,21.01,26.48,21.01h45.76v26.19h-47.2c-15.45,0-30.03-6.91-39.81-18.9
		c-9.88-11.99-13.72-27.63-10.65-43.08c4.7-23.79,26.67-41.06,52.19-41.06h46.34C632.03,57.83,655.15,80.95,655.15,109.35z"/>
	<path class="st1" d="M483.51,110.86l-0.06-0.62c0.03-0.34,0.06-0.68,0.06-1.05c0-27.88-24.2-51.43-52.84-51.43h-86.65
		c-27.79,0-50.29,21.82-51.24,49.72v10.45h25.9v-8.63c0-13.97,11.36-25.33,25.33-25.33h88.06c6.76,0,13.14,2.63,17.91,7.42
		c5.35,5.35,8.02,12.79,7.32,20.47c-0.53,12.77-10.91,22.77-23.65,22.77h-154c-14.35,0-26.04-11.64-26.04-25.94V81.56h-26.1v27.12
		c0,14.3-11.64,25.94-25.93,25.94h-30.78c-14.31,0-25.94-11.64-25.94-25.94V0h-26.1l-0.1,167.59c0,13.91-11.36,25.23-25.32,25.23
		H51.88c-13.96,0-25.32-11.32-25.32-25.23v-19.59L0.45,158.71v8.88c0,28.36,23.08,51.43,51.43,51.43h41.46
		c28.42,0,51.53-23.08,51.53-51.43v-13.14c7.39,4.11,15.59,6.27,23.82,6.27h34.91c14.04,0,27.45-6.04,37.02-16.62
		c9.46,10.58,22.84,16.62,36.92,16.62h156.12C461.15,160.72,483.51,138.35,483.51,110.86z"/>
	<path class="st1" d="M176.4,408.06l-30.68-91.98c-3.33-10.08-12.27-16.6-22.79-16.6c-10.41,0-19.36,6.51-22.78,16.6L70.2,408.03
		L27.9,277.91l-0.38-1.17H0l46.8,143.68c3.23,9.91,11.91,16.92,21.6,17.45c11.13,0.53,20.77-6.06,24.2-16.57l29.95-92.02
		l30.71,92.03c3.43,10.16,12.36,16.6,22.89,16.6c0.28,0,0.56,0,0.84-0.01c9.96-0.33,18.93-7.55,22.33-17.97l45.91-140.96l0.72-2.23
		h-27.52L176.4,408.06z"/>
	<path class="st1" d="M546.09,276.72h-55.38c-25.82,0-46.83,21.01-46.83,46.84c0,25.83,21.01,46.84,46.83,46.84h55.38
		c11.4,0,20.69,9.28,20.69,20.69c0,11.4-9.28,20.68-20.69,20.68h-55.38c-11.4,0-20.69-9.28-20.69-20.68v-1.71h-26.15v1.71
		c0,25.83,21.01,46.84,46.83,46.84h55.38c25.82,0,46.83-21.01,46.83-46.84c0-25.83-21.01-46.85-46.83-46.85h-55.38
		c-11.4,0-20.69-9.28-20.69-20.68c0-11.4,9.28-20.68,20.69-20.68h55.38c11.4,0,20.69,9.28,20.69,20.68v1.7h26.15v-1.7
		C592.92,297.73,571.91,276.72,546.09,276.72z"/>
	<polygon class="st1" points="628.96,437.88 655.09,437.88 655.09,276.74 628.96,276.7 	"/>
	<path class="st1" d="M413.77,334.8v51.61c0,28.4-23.12,51.52-51.52,51.52h-46.34c-25.52,0-47.49-17.27-52.19-41.06
		c-3.07-15.45,0.86-31.18,10.65-43.08c9.88-11.99,24.37-18.9,39.81-18.9h47.2v26.19h-45.67c-13.14,0-24.56,9.02-26.48,21.01
		c-1.25,7.48,0.86,14.97,5.66,20.72c4.8,5.66,11.9,8.92,19.28,8.92h48.06c14.01,0,25.42-11.42,25.42-25.33V334.8
		c0-0.38,0-0.77-0.1-1.15c-0.58-17.08-14.68-30.8-31.85-30.8h-54.4l-8.92-0.67l-10.46-25.42h73.77
		C387.77,276.76,413.77,302.75,413.77,334.8z"/>
	<path class="st1" d="M1132.24,181.78c-14.1-16.88-33.58-28.21-54.97-31.95l37.13-90.47l0.67-1.63H982.2
		c-56.12,0-101.79,45.57-101.79,101.69v4.7h-13.24c-45.19,0-84.04,30.8-92.58,73.2c-5.28,27.53,1.73,55.35,19.19,76.46
		c13.91,17.08,33.39,28.4,54.97,31.95l-37.13,90.56l-0.77,1.63h132.97c56.12,0,101.79-45.57,101.79-101.69v-4.8h13.14
		c45.19,0,84.14-30.7,92.58-73.1c1.15-6.04,1.73-12.09,1.73-18.13C1153.06,218.91,1145.86,198.28,1132.24,181.78z M1125.91,253.35
		c-6.04,30.22-34.25,52.19-67.16,52.19h-13.14v-49.7c0-50.56-41.16-91.72-91.62-91.72h-21.68v26h21.68
		c36.17,0,65.62,29.45,65.62,65.72v80.39c0,41.73-33.96,75.79-75.79,75.79h-94.31l36.65-89.12l0.67-1.73h-22.64
		c-19.48,0-37.89-8.63-50.46-23.79c-12.47-15.25-17.46-35.31-13.72-54.97c6.04-30.32,34.25-52.29,67.16-52.29h13.24v49.7
		c0,50.56,41.06,91.62,91.62,91.62h21.68v-25.9h-21.68c-36.17,0-65.62-29.45-65.62-65.72v-80.39c0-41.73,33.96-75.69,75.79-75.69
		h94.21l-36.55,89.12l-0.67,1.63h22.55c19.67,0,38.09,8.63,50.46,23.79C1124.76,213.53,1129.75,233.58,1125.91,253.35z"/>
</g>
</svg>
